<svg width="190" height="59" viewBox="0 0 190 59" fill="none" xmlns="http://www.w3.org/2000/svg">
<path d="M88.413 30.55C88.413 31.9 88.188 33.16 87.738 34.33C87.288 35.5 86.649 36.535 85.821 37.435C85.011 38.317 84.039 39.01 82.905 39.514C81.789 40.018 80.565 40.27 79.233 40.27C77.901 40.27 76.677 40.018 75.561 39.514C74.445 39.01 73.473 38.317 72.645 37.435C71.835 36.535 71.205 35.5 70.755 34.33C70.305 33.16 70.08 31.9 70.08 30.55C70.08 29.2 70.305 27.94 70.755 26.77C71.205 25.6 71.835 24.574 72.645 23.692C73.473 22.792 74.445 22.09 75.561 21.586C76.677 21.082 77.901 20.83 79.233 20.83C80.565 20.83 81.789 21.082 82.905 21.586C84.039 22.09 85.011 22.792 85.821 23.692C86.649 24.574 87.288 25.6 87.738 26.77C88.188 27.94 88.413 29.2 88.413 30.55ZM84.903 30.55C84.903 29.344 84.66 28.255 84.174 27.283C83.688 26.293 83.022 25.51 82.176 24.934C81.33 24.358 80.349 24.07 79.233 24.07C78.117 24.07 77.136 24.358 76.29 24.934C75.444 25.51 74.778 26.284 74.292 27.256C73.824 28.228 73.59 29.326 73.59 30.55C73.59 31.756 73.824 32.854 74.292 33.844C74.778 34.816 75.444 35.59 76.29 36.166C77.136 36.742 78.117 37.03 79.233 37.03C80.349 37.03 81.33 36.742 82.176 36.166C83.022 35.59 83.688 34.816 84.174 33.844C84.66 32.854 84.903 31.756 84.903 30.55ZM98.9643 25.285C100.296 25.285 101.304 25.564 101.988 26.122C102.69 26.68 103.167 27.427 103.419 28.363C103.689 29.281 103.824 30.307 103.824 31.441V38.353C103.824 38.821 103.671 39.217 103.365 39.541C103.059 39.847 102.672 40 102.204 40C101.736 40 101.349 39.847 101.043 39.541C100.737 39.217 100.584 38.821 100.584 38.353V31.441C100.584 30.847 100.503 30.316 100.341 29.848C100.197 29.362 99.9273 28.975 99.5313 28.687C99.1353 28.399 98.5683 28.255 97.8303 28.255C97.1103 28.255 96.4983 28.399 95.9943 28.687C95.5083 28.975 95.1303 29.362 94.8603 29.848C94.6083 30.316 94.4823 30.847 94.4823 31.441V38.353C94.4823 38.821 94.3293 39.217 94.0233 39.541C93.7173 39.847 93.3303 40 92.8623 40C92.3943 40 92.0073 39.847 91.7013 39.541C91.3953 39.217 91.2423 38.821 91.2423 38.353V27.202C91.2423 26.734 91.3953 26.347 91.7013 26.041C92.0073 25.717 92.3943 25.555 92.8623 25.555C93.3303 25.555 93.7173 25.717 94.0233 26.041C94.3293 26.347 94.4823 26.734 94.4823 27.202V28.363L94.0773 28.282C94.2393 27.976 94.4733 27.652 94.7793 27.31C95.0853 26.95 95.4453 26.617 95.8593 26.311C96.2733 26.005 96.7413 25.762 97.2633 25.582C97.7853 25.384 98.3523 25.285 98.9643 25.285ZM114.13 40.27C112.6 40.27 111.268 39.955 110.134 39.325C109.018 38.677 108.154 37.804 107.542 36.706C106.948 35.608 106.651 34.366 106.651 32.98C106.651 31.36 106.975 29.983 107.623 28.849C108.289 27.697 109.153 26.815 110.215 26.203C111.277 25.591 112.402 25.285 113.59 25.285C114.508 25.285 115.372 25.474 116.182 25.852C117.01 26.23 117.739 26.752 118.369 27.418C118.999 28.066 119.494 28.822 119.854 29.686C120.232 30.55 120.421 31.468 120.421 32.44C120.403 32.872 120.232 33.223 119.908 33.493C119.584 33.763 119.206 33.898 118.774 33.898H108.46L107.65 31.198H117.559L116.965 31.738V31.009C116.929 30.487 116.74 30.019 116.398 29.605C116.074 29.191 115.66 28.867 115.156 28.633C114.67 28.381 114.148 28.255 113.59 28.255C113.05 28.255 112.546 28.327 112.078 28.471C111.61 28.615 111.205 28.858 110.863 29.2C110.521 29.542 110.251 30.001 110.053 30.577C109.855 31.153 109.756 31.882 109.756 32.764C109.756 33.736 109.954 34.564 110.35 35.248C110.764 35.914 111.286 36.427 111.916 36.787C112.564 37.129 113.248 37.3 113.968 37.3C114.634 37.3 115.165 37.246 115.561 37.138C115.957 37.03 116.272 36.904 116.506 36.76C116.758 36.598 116.983 36.463 117.181 36.355C117.505 36.193 117.811 36.112 118.099 36.112C118.495 36.112 118.819 36.247 119.071 36.517C119.341 36.787 119.476 37.102 119.476 37.462C119.476 37.948 119.224 38.389 118.72 38.785C118.252 39.181 117.595 39.532 116.749 39.838C115.903 40.126 115.03 40.27 114.13 40.27ZM131.325 21.1C132.261 21.1 133.134 21.37 133.944 21.91C134.772 22.45 135.438 23.179 135.942 24.097C136.446 25.015 136.698 26.041 136.698 27.175C136.698 28.291 136.446 29.308 135.942 30.226C135.438 31.144 134.772 31.882 133.944 32.44C133.134 32.98 132.261 33.25 131.325 33.25H126.357L126.627 32.764V38.353C126.627 38.821 126.483 39.217 126.195 39.541C125.907 39.847 125.529 40 125.061 40C124.611 40 124.242 39.847 123.954 39.541C123.666 39.217 123.522 38.821 123.522 38.353V22.747C123.522 22.279 123.675 21.892 123.981 21.586C124.305 21.262 124.701 21.1 125.169 21.1H131.325ZM131.325 30.172C131.667 30.172 132 30.028 132.324 29.74C132.648 29.452 132.918 29.083 133.134 28.633C133.35 28.165 133.458 27.679 133.458 27.175C133.458 26.653 133.35 26.167 133.134 25.717C132.918 25.267 132.648 24.907 132.324 24.637C132 24.349 131.667 24.205 131.325 24.205H126.303L126.627 23.719V30.604L126.33 30.172H131.325ZM143.031 38.353C143.031 38.821 142.869 39.217 142.545 39.541C142.239 39.847 141.852 40 141.384 40C140.934 40 140.556 39.847 140.25 39.541C139.944 39.217 139.791 38.821 139.791 38.353V21.667C139.791 21.199 139.944 20.812 140.25 20.506C140.574 20.182 140.97 20.02 141.438 20.02C141.906 20.02 142.284 20.182 142.572 20.506C142.878 20.812 143.031 21.199 143.031 21.667V38.353ZM158.624 25.285C159.092 25.285 159.479 25.438 159.785 25.744C160.091 26.05 160.244 26.446 160.244 26.932V38.353C160.244 38.821 160.091 39.217 159.785 39.541C159.479 39.847 159.092 40 158.624 40C158.156 40 157.769 39.847 157.463 39.541C157.157 39.217 157.004 38.821 157.004 38.353V37.03L157.598 37.273C157.598 37.507 157.472 37.795 157.22 38.137C156.968 38.461 156.626 38.785 156.194 39.109C155.762 39.433 155.249 39.712 154.655 39.946C154.079 40.162 153.449 40.27 152.765 40.27C151.523 40.27 150.398 39.955 149.39 39.325C148.382 38.677 147.581 37.795 146.987 36.679C146.411 35.545 146.123 34.249 146.123 32.791C146.123 31.315 146.411 30.019 146.987 28.903C147.581 27.769 148.373 26.887 149.363 26.257C150.353 25.609 151.451 25.285 152.657 25.285C153.431 25.285 154.142 25.402 154.79 25.636C155.438 25.87 155.996 26.167 156.464 26.527C156.95 26.887 157.319 27.256 157.571 27.634C157.841 27.994 157.976 28.3 157.976 28.552L157.004 28.903V26.932C157.004 26.464 157.157 26.077 157.463 25.771C157.769 25.447 158.156 25.285 158.624 25.285ZM153.17 37.3C153.962 37.3 154.655 37.102 155.249 36.706C155.843 36.31 156.302 35.77 156.626 35.086C156.968 34.402 157.139 33.637 157.139 32.791C157.139 31.927 156.968 31.153 156.626 30.469C156.302 29.785 155.843 29.245 155.249 28.849C154.655 28.453 153.962 28.255 153.17 28.255C152.396 28.255 151.712 28.453 151.118 28.849C150.524 29.245 150.056 29.785 149.714 30.469C149.39 31.153 149.228 31.927 149.228 32.791C149.228 33.637 149.39 34.402 149.714 35.086C150.056 35.77 150.524 36.31 151.118 36.706C151.712 37.102 152.396 37.3 153.17 37.3ZM171.474 25.285C172.806 25.285 173.814 25.564 174.498 26.122C175.2 26.68 175.677 27.427 175.929 28.363C176.199 29.281 176.334 30.307 176.334 31.441V38.353C176.334 38.821 176.181 39.217 175.875 39.541C175.569 39.847 175.182 40 174.714 40C174.246 40 173.859 39.847 173.553 39.541C173.247 39.217 173.094 38.821 173.094 38.353V31.441C173.094 30.847 173.013 30.316 172.851 29.848C172.707 29.362 172.437 28.975 172.041 28.687C171.645 28.399 171.078 28.255 170.34 28.255C169.62 28.255 169.008 28.399 168.504 28.687C168.018 28.975 167.64 29.362 167.37 29.848C167.118 30.316 166.992 30.847 166.992 31.441V38.353C166.992 38.821 166.839 39.217 166.533 39.541C166.227 39.847 165.84 40 165.372 40C164.904 40 164.517 39.847 164.211 39.541C163.905 39.217 163.752 38.821 163.752 38.353V27.202C163.752 26.734 163.905 26.347 164.211 26.041C164.517 25.717 164.904 25.555 165.372 25.555C165.84 25.555 166.227 25.717 166.533 26.041C166.839 26.347 166.992 26.734 166.992 27.202V28.363L166.587 28.282C166.749 27.976 166.983 27.652 167.289 27.31C167.595 26.95 167.955 26.617 168.369 26.311C168.783 26.005 169.251 25.762 169.773 25.582C170.295 25.384 170.862 25.285 171.474 25.285ZM179.998 25.825H186.397C186.829 25.825 187.189 25.969 187.477 26.257C187.765 26.545 187.909 26.905 187.909 27.337C187.909 27.751 187.765 28.102 187.477 28.39C187.189 28.66 186.829 28.795 186.397 28.795H179.998C179.566 28.795 179.206 28.651 178.918 28.363C178.63 28.075 178.486 27.715 178.486 27.283C178.486 26.869 178.63 26.527 178.918 26.257C179.206 25.969 179.566 25.825 179.998 25.825ZM182.887 22.45C183.355 22.45 183.733 22.612 184.021 22.936C184.327 23.242 184.48 23.629 184.48 24.097V36.112C184.48 36.364 184.525 36.571 184.615 36.733C184.723 36.895 184.858 37.012 185.02 37.084C185.2 37.156 185.389 37.192 185.587 37.192C185.803 37.192 186.001 37.156 186.181 37.084C186.361 36.994 186.568 36.949 186.802 36.949C187.054 36.949 187.279 37.066 187.477 37.3C187.693 37.534 187.801 37.858 187.801 38.272C187.801 38.776 187.522 39.19 186.964 39.514C186.424 39.838 185.839 40 185.209 40C184.831 40 184.408 39.973 183.94 39.919C183.49 39.847 183.058 39.694 182.644 39.46C182.248 39.208 181.915 38.83 181.645 38.326C181.375 37.822 181.24 37.129 181.24 36.247V24.097C181.24 23.629 181.393 23.242 181.699 22.936C182.023 22.612 182.419 22.45 182.887 22.45Z" fill="white"/>
<path d="M37.1917 7.07956C37.2419 8.19119 37.2303 9.2527 37.1598 10.2631C38.8773 11.1038 40.4798 12.1451 41.9345 13.357C42.7613 12.7062 43.5003 12.0496 44.1465 11.421C42.0426 9.60557 39.7002 8.14781 37.1917 7.07956V7.07956ZM17.5299 6.88673C17.5347 6.77682 17.5405 6.66691 17.5463 6.55893C14.9064 7.5192 12.4268 8.89693 10.1907 10.6613C10.7992 11.2822 11.5237 11.9522 12.3795 12.6455C13.982 11.4364 15.741 10.4251 17.6217 9.64799C17.5202 8.76099 17.4893 7.83929 17.5299 6.88673V6.88673Z" fill="white"/>
<path d="M53.4167 31.6146C53.4167 38.7347 50.6386 45.4296 45.5935 50.4643C40.5493 55.4999 33.8428 58.2727 26.7083 58.2727C26.6736 58.2727 26.6397 58.2727 26.605 58.2717C24.476 58.265 22.3848 58.0095 20.3659 57.5197C15.656 56.3811 11.3363 53.9717 7.82221 50.4643C2.77805 45.4296 0 38.7347 0 31.6146C0 27.1652 1.08475 22.8835 3.12869 19.0675C3.42234 20.667 3.8319 22.1219 4.35447 23.4263C3.41268 25.9803 2.89783 28.7386 2.89783 31.6146C2.89783 42.7792 10.6505 52.1698 21.0653 54.7064C21.8438 54.8954 22.6369 55.0467 23.4425 55.1576C24.4934 49.9995 26.2147 36.8768 18.8967 28.4215C18.8967 28.4215 28.08 30.3613 24.6093 55.2887C25.0334 55.3263 25.4603 55.3514 25.8911 55.3659L26.3055 20.0712L26.7083 20.775V55.3803C26.8175 55.3803 26.9257 55.3794 27.0339 55.3784H27.0348C27.5584 55.3717 28.078 55.3466 28.5929 55.3071C28.1746 53.1522 24.7137 33.6518 35.3216 28.4243C35.0918 28.5834 26.6658 35.6186 29.9066 55.1673C30.6755 55.0631 31.4328 54.9233 32.1765 54.7479C42.6792 52.2749 50.5188 42.8419 50.5188 31.6146C50.5188 29.0481 50.1093 26.5752 49.351 24.2584C49.9644 23.0137 50.4705 21.6639 50.8675 20.2167C52.5367 23.7348 53.4167 27.6068 53.4167 31.6146V31.6146Z" fill="white"/>
<path d="M27.6299 20.5744C22.4534 6.33816 33.7134 0 33.7134 0C38.148 18.9644 27.6299 20.5744 27.6299 20.5744V20.5744Z" fill="white"/>
<path d="M33.1086 27.5162C33.1086 27.5162 35.225 20.4742 40.3155 17.4054C45.4061 14.3366 48.5811 10.3123 49.3365 8.80347C49.3365 8.80347 52.1735 29.4271 34.8048 31.8422C34.8048 31.8422 37.7597 26.7806 39.6606 26.259C41.3085 25.8058 33.1086 27.5162 33.1086 27.5162V27.5162Z" fill="white"/>
<path d="M21.3667 27.7668C21.3667 27.7668 19.855 20.6236 13.5049 16.449C7.15475 12.2743 5.23928 8.09866 5.23928 8.09866C5.23928 8.09866 3.47547 21.2783 9.37159 26.7612C15.2677 32.2442 19.2995 31.5905 19.2995 31.5905C19.2995 31.5905 16.6789 27.063 14.4109 26.1577C14.4109 26.1577 17.9385 25.7046 21.3657 27.7678L21.3667 27.7668Z" fill="white"/>
<path d="M21.2807 0.822388C21.2807 0.822388 16.5167 11.69 24.8653 17.5606C24.8653 17.5606 24.025 12.7766 25.7936 7.59248C25.7936 7.59248 25.7405 4.60851 21.2817 0.823352L21.2807 0.822388Z" fill="white"/>
</svg>
